<?xml version="1.0" encoding="utf-8"?>
<!-- Generator: Adobe Illustrator 22.1.0, SVG Export Plug-In . SVG Version: 6.00 Build 0)  -->
<svg version="1.1"
	 id="Layer_1" xmlns:cc="http://creativecommons.org/ns#" xmlns:dc="http://purl.org/dc/elements/1.1/" xmlns:inkscape="http://www.inkscape.org/namespaces/inkscape" xmlns:rdf="http://www.w3.org/1999/02/22-rdf-syntax-ns#" xmlns:sodipodi="http://sodipodi.sourceforge.net/DTD/sodipodi-0.dtd" xmlns:svg="http://www.w3.org/2000/svg"
	 xmlns="http://www.w3.org/2000/svg" xmlns:xlink="http://www.w3.org/1999/xlink" x="0px" y="0px" viewBox="0 0 32 40"
	 style="enable-background:new 0 0 32 40;" xml:space="preserve">
	 <style>
	 	.st1{
	 	fill: #fff;
	 	}
	 </style>
<g transform="translate(0,-1020.3622)">
	<path class="st1" d="M6.5,1025.4c-0.3,0-0.5,0.2-0.5,0.5c0,0.8,0,1.7,0,2.5H0.5c-0.3,0-0.5,0.2-0.5,0.5c0,4.5,3.2,8.3,7.5,9.3
		c0.6,1.7,1.6,3.3,2.9,4.4c1,0.8,2.2,1.4,3.7,1.7v3.4c-0.6,0.3-1.1,1-1.1,1.8v0.1c-1.5,0.2-2.7,1.4-2.9,2.9H10c-1.1,0-2,0.9-2,2v2.5
		c0,0.3,0.2,0.5,0.5,0.5h15c0.3,0,0.5-0.2,0.5-0.5v-2.5c0-1.1-0.9-2-2-2h-0.1c-0.2-1.5-1.4-2.7-2.9-2.9v-0.1c0-0.8-0.4-1.4-1.1-1.8
		v-3.4c1.5-0.3,2.7-0.8,3.7-1.7c1.4-1.1,2.3-2.7,2.9-4.4c4.3-0.9,7.5-4.7,7.5-9.3c0-0.3-0.2-0.5-0.5-0.5H26c0-0.8,0-1.7,0-2.5
		c0-0.3-0.2-0.5-0.5-0.5L6.5,1025.4L6.5,1025.4z M7,1026.4h18c0,3.7-0.2,8-1.3,11.2c-0.6,1.7-1.5,3.1-2.7,4.2s-2.8,1.6-5,1.6
		s-3.7-0.6-5-1.6c-1.2-1-2.1-2.4-2.7-4.2C7.2,1034.3,7,1030.1,7,1026.4z M1.1,1029.4h5c0,0.3,0,0.7,0,1H2.8c-0.3,0-0.5,0.2-0.5,0.5
		c0,0,0,0.1,0,0.1c0.7,2.2,2.3,4,4.5,4.8c0.1,0.4,0.2,0.8,0.3,1.2C3.8,1036,1.3,1033,1.1,1029.4L1.1,1029.4z M25.9,1029.4h5
		c-0.2,3.6-2.7,6.7-6,7.6c0.1-0.4,0.2-0.8,0.3-1.2c2.2-0.8,3.8-2.6,4.5-4.8c0.1-0.3-0.1-0.5-0.3-0.6c0,0-0.1,0-0.1,0h-3.3
		C25.9,1030,25.9,1029.7,25.9,1029.4L25.9,1029.4z M3.6,1031.4h2.5c0.1,1.1,0.2,2.2,0.4,3.3C5.3,1033.9,4.3,1032.8,3.6,1031.4z
		 M25.8,1031.4h2.5c-0.6,1.4-1.6,2.6-2.9,3.3C25.6,1033.6,25.7,1032.5,25.8,1031.4z M22.7,1033.3c-0.2,0-0.4,0.2-0.5,0.4
		c-0.1,0.5-0.1,0.9-0.2,1.4c-0.1,0.3,0.1,0.5,0.4,0.6s0.5-0.1,0.6-0.4c0,0,0,0,0,0c0.1-0.5,0.2-1,0.2-1.5c0-0.3-0.1-0.5-0.4-0.6
		C22.8,1033.3,22.8,1033.3,22.7,1033.3C22.7,1033.3,22.7,1033.3,22.7,1033.3L22.7,1033.3z M22,1036.5C22,1036.5,22,1036.5,22,1036.5
		c-0.2,0-0.4,0.1-0.5,0.3c-0.5,1.4-1.2,2.6-2.3,3.3c-0.2,0.2-0.3,0.5-0.1,0.7c0.2,0.2,0.5,0.3,0.7,0.1c1.3-0.9,2.2-2.3,2.7-3.8
		c0.1-0.3,0-0.5-0.3-0.6C22.2,1036.5,22.1,1036.5,22,1036.5L22,1036.5z M15.1,1044.3c0.3,0,0.6,0,0.9,0c0.3,0,0.6,0,0.9,0v3h-1.9
		C15.1,1047.4,15.1,1044.3,15.1,1044.3z M15,1048.4h2c0.6,0,1,0.4,1,1h-4C14,1048.8,14.4,1048.4,15,1048.4z M13.5,1050.4h5
		c1.2,0,2,0.9,2.3,2h-9.6C11.5,1051.2,12.3,1050.4,13.5,1050.4z M10,1053.4h12c0.6,0,1,0.4,1,1v2H9v-2
		C9,1053.8,9.4,1053.4,10,1053.4z M10.5,1054.4c-0.3,0-0.5,0.2-0.5,0.5s0.2,0.5,0.5,0.5h11c0.3,0,0.5-0.2,0.5-0.5
		c0-0.3-0.2-0.5-0.5-0.5c0,0,0,0,0,0H10.5C10.5,1054.4,10.5,1054.4,10.5,1054.4z"/>
</g>
</svg>
