<?xml version="1.0" encoding="utf-8"?>
<!-- Generator: Adobe Illustrator 16.0.0, SVG Export Plug-In . SVG Version: 6.00 Build 0)  -->
<!DOCTYPE svg PUBLIC "-//W3C//DTD SVG 1.1//EN" "http://www.w3.org/Graphics/SVG/1.1/DTD/svg11.dtd">
<svg version="1.1" id="Layer_1" xmlns="http://www.w3.org/2000/svg" xmlns:xlink="http://www.w3.org/1999/xlink" x="0px" y="0px"
	 width="92.665px" height="19.918px" viewBox="0 0 92.665 19.918" enable-background="new 0 0 92.665 19.918" xml:space="preserve">
<g>
	<g>
		<path fill-rule="evenodd" clip-rule="evenodd" fill="#FEFEFE" d="M42.777,3.652c0,1.776,0,3.36,0,5.109
			c-0.9,0.045-1.606,0.08-2.507,0.125c0-2.554,0-4.983,0-7.813c3.369,0.184,6.743,0.066,10.002,0.625
			c3.646,0.624,6.252,3.678,6.671,6.99c-1.433,0.448-2.335,0.227-3.115-1.345c-1.141-2.3-3.219-3.578-5.858-3.68
			C46.308,3.6,44.641,3.652,42.777,3.652z"/>
		<path fill-rule="evenodd" clip-rule="evenodd" fill="#FEFEFE" d="M57.149,11.643c-0.74,4.677-4.227,7.897-8.483,8.183
			c-2.742,0.185-5.507,0.034-8.42,0.034c0-2.534,0-4.983,0-7.604c0.751,0,1.508,0,2.453,0c0,1.659,0,3.316,0,4.937
			c5.778,1.038,9.849,0.062,11.697-4.293C54.646,12.312,55.938,12.167,57.149,11.643z"/>
	</g>
	<g>
		<path fill-rule="evenodd" clip-rule="evenodd" fill="#FEFEFE" d="M59.941,17.693c3.599,0,6.733,0,10.052,0
			c0.06,0.774,0.108,1.406,0.173,2.225c-4.77,0-9.369,0-14.338,0c1.681-2.53,3.183-4.964,4.899-7.237
			c0.36-0.478,1.503-0.365,2.875-0.646C62.233,14.151,61.226,15.708,59.941,17.693z"/>
		<path fill-rule="evenodd" clip-rule="evenodd" fill="#FEFEFE" d="M69.833,1.546c0,0.774,0,1.37,0,2.208c-3.165,0-6.281,0-9.866,0
			c1.214,1.925,2.187,3.47,3.2,5.077c-1.585,0.607-2.561,0.176-3.372-1.189c-1.189-2-2.55-3.899-4.007-6.095
			C60.617,1.546,65.123,1.546,69.833,1.546z"/>
	</g>
	<g>
		<path fill-rule="evenodd" clip-rule="evenodd" fill="#FEFEFE" d="M72.608,7.214c3.231,0,6.375-0.017,9.519,0.023
			c0.349,0.004,0.799,0.243,1.022,0.519c3.163,3.903,6.297,7.832,9.516,11.85c-1.73,0.688-2.77,0.198-3.74-1.093
			c-1.98-2.633-4.145-5.127-6.135-7.752c-0.779-1.026-1.617-1.438-2.895-1.354c-1.658,0.108-3.329,0.026-5.075,0.026
			c0,1.078,0,1.929,0,3.002c2.182,0,4.305,0,6.584,0c0,0.832,0,1.445,0,2.253c-2.177,0-4.302,0-6.658,0c0,1.827,0,3.473,0,5.196
			c-0.822,0-1.406,0-2.138,0C72.608,15.708,72.608,11.583,72.608,7.214z"/>
		<path fill-rule="evenodd" clip-rule="evenodd" fill="#FEFEFE" d="M83.521,15.552c0.513,0.563,0.905,0.993,1.365,1.498
			c-1.118,1.531-1.816,3.495-4.603,2.672C81.372,18.322,82.399,16.998,83.521,15.552z"/>
		<path fill-rule="evenodd" clip-rule="evenodd" fill="#FEFEFE" d="M92.646,7.5c-1.142,1.433-2.162,2.714-3.311,4.153
			c-0.503-0.591-0.906-1.063-1.339-1.569C89.161,8.561,89.884,6.579,92.646,7.5z"/>
	</g>
	<g>
		<path fill="#FEFEFE" d="M28.472,17.617c-3.775,0-6.904-2.735-7.534-6.33h-2.334c0.649,4.872,4.819,8.631,9.868,8.631
			c5.05,0,9.219-3.759,9.868-8.631h-2.334C35.376,14.881,32.247,17.617,28.472,17.617z"/>
		<path fill="#FEFEFE" d="M28.472,2.302c3.589,0,6.592,2.472,7.422,5.804h2.362C37.388,3.492,33.339,0,28.472,0
			c-4.866,0-8.915,3.492-9.784,8.106h2.363C21.88,4.774,24.884,2.302,28.472,2.302z"/>
	</g>
	<g>
		<path fill="#FEFEFE" d="M9.868,17.617c-3.775,0-6.905-2.735-7.534-6.33H0c0.649,4.872,4.818,8.631,9.868,8.631
			c3.548,0,6.661-1.857,8.425-4.651l-2.062-1.05C14.857,16.266,12.521,17.617,9.868,17.617z"/>
		<path fill="#FEFEFE" d="M9.868,0C5.001,0,0.952,3.492,0.084,8.106h2.362c0.829-3.332,3.833-5.804,7.422-5.804
			c2.723,0,5.106,1.425,6.465,3.566l2.18-0.851C16.797,2.021,13.569,0,9.868,0z"/>
	</g>
</g>
</svg>
