<?xml version="1.0" encoding="utf-8"?>
<!-- Generator: Adobe Illustrator 22.1.0, SVG Export Plug-In . SVG Version: 6.00 Build 0)  -->
<svg version="1.1" id="Layer_1" xmlns="http://www.w3.org/2000/svg" xmlns:xlink="http://www.w3.org/1999/xlink" x="0px" y="0px"
	 viewBox="0 0 429.1 424" style="enable-background:new 0 0 429.1 424;" xml:space="preserve">
<style type="text/css">
	.st0{clip-path:url(#SVGID_2_);fill:#FFFFFF;}
	.st1{fill:#FFFFFF;}
</style>
<title>brand-logo</title>
<g>
	<g>
		<defs>
			<path id="SVGID_1_" d="M16.9,357.1c15.2-17.2,38.8-26.5,62.4-28.3c43.3-3.3,56.7,8.7,77.9,12.2c-8.7-12.5-23.2-26.5-39.4-32.7
				c0.3-0.4,0.9-1.5,1.1-1.2c0,0,6.5-8.7,21.8-12.5c-5-8.8-12.1-8.2-22.6-14.5c5.2-8.1,7.1-4.5,15.4-13.3
				c-36.1-3.4-56.4-1.9-82.9,17.2C34.1,295.6,12.7,323.7,16.9,357.1 M225.1,78.4l-0.3,13.8l23.2,1C248,93.1,232.5,85.4,225.1,78.4z
				 M110.2,235.8c9.1,1.6,18.9,1.2,28,2.3c10.5,1.2,17.8,3.5,27.9,5.3c-9.7-32.2-20-60.5,10.7-89.3c20.8-19.4,60.6-26.5,96.1-22.9
				c-6.5,4.5-22.2,8.6-31.1,14.4c-36.3,23.3-30.9,69.1-13.7,101.9c16.3,31,56.8,57.3,91.3,47.5c14-4,19.1-13.3,27.2-20.9
				c-4.1,17.2-21.3,30.5-41.8,32.6c-21.1,2.1-43.8-7.3-59.7-14.7c-31.8-14.9-70.3-35-106.4-42.1c-45.4-9-89.5,7.5-110.9,31.5
				c-27.6,31-33.9,67-22.8,117.9c15-17.2,23.4-42.8,67.8-51c96-17.7,176.7,95.1,286.1,47.7c103.5-44.9,88.5-177.7-20-203.7
				c-44.7-10.7-66.7-0.1-106.1,8.6c-5.1-62.8,80.9-43.2,91.2-86.6c-21.3-2.7-51.7-21.2-65.8-31.8c-36.9-27.7-30.3-32-31.5-67.9
				c-33.8,7.2-83.2,48.1-103.6,78C98.9,128.2,82.8,189.2,110.2,235.8z"/>
		</defs>
		<use xlink:href="#SVGID_1_"  style="overflow:visible;fill-rule:evenodd;clip-rule:evenodd;fill:#FFFFFF;"/>
		<clipPath id="SVGID_2_">
			<use xlink:href="#SVGID_1_"  style="overflow:visible;"/>
		</clipPath>
		<rect x="-5.9" y="14.4" class="st0" width="468.5" height="428.8"/>
	</g>
	<path class="st1" d="M118.9,307.1c-0.2-0.3-0.7,0.8-1.1,1.2c16.2,6.2,30.7,20.2,39.4,32.7c-21.3-3.5-34.6-15.5-77.9-12.2
		c-23.6,1.8-47.2,11.1-62.4,28.3c-4.2-33.4,17.2-61.4,33.6-73.2c7.4-5.3,14.4-9.2,21.3-12.1l-18.7-9.7c-10,5.4-18.6,11.9-25.1,19.2
		c-27.6,31-33.9,67-22.8,117.9c15-17.2,23.4-42.8,67.8-51c73.9-13.6,138.6,49.9,214.4,58.4H320c3.1-0.4,6.2-0.8,9.3-1.4L126.9,300.4
		C121.4,303.8,118.9,307.1,118.9,307.1z"/>
	<path class="st1" d="M339.1,192.1c-37.7-9.1-59.4-2.8-88.9,4.5L428.8,290C425.6,246.8,394.6,205.5,339.1,192.1z"/>
	<path class="st1" d="M324.1,114.1c-21.3-2.7-51.7-21.2-65.8-31.8c-36.9-27.7-30.3-32-31.5-67.9c-33.8,7.2-83.2,48.1-103.6,78
		c-5.9,8.6-11.3,18.8-15.7,29.8l66.6,34.8c0.9-1,1.8-1.9,2.8-2.9c20.8-19.4,60.6-26.5,96.1-22.9c-6.5,4.5-22.2,8.6-31.1,14.4
		c-13.6,8.8-21.3,20.7-24.8,33.9l16.3,8.5C240.5,140.6,314.7,154.3,324.1,114.1z M224.8,92.1l0.3-13.8c7.4,7.1,22.8,14.8,22.8,14.8
		L224.8,92.1z"/>
</g>
</svg>
