<?xml version="1.0" encoding="utf-8"?>
<!-- Generator: Adobe Illustrator 22.1.0, SVG Export Plug-In . SVG Version: 6.00 Build 0)  -->
<svg version="1.1" id="Capa_1" xmlns="http://www.w3.org/2000/svg" xmlns:xlink="http://www.w3.org/1999/xlink" x="0px" y="0px"
	 viewBox="0 0 512 512" style="enable-background:new 0 0 512 512;" xml:space="preserve">
<style type="text/css">
	.st0{fill:#FFFFFF;}
</style>
<g>
	<g>
		<g>
			<polygon class="st0" points="448,288 448,480 64,480 64,288 0,288 0,320 32,320 32,512 480,512 480,320 512,320 512,288 			"/>
			<path class="st0" d="M213.7,314.3c8.6,2.4,17.4,4,26.3,4.9v74.2l-28.7-28.7l-22.6,22.6l67.3,67.3l67.3-67.3l-22.6-22.6L272,393.4
				v-74.2c88-8.9,152.1-87.5,143.2-175.4c-0.5-4.7-1.2-9.4-2-14l-31.4,6c13.3,69.3-32.2,136.3-101.5,149.6s-136.3-32.2-149.6-101.5
				S162.8,47.6,232.1,34.3c19.3-3.7,39.1-2.9,58,2.3l8.5-30.8c-85.2-23.5-173.3,26.6-196.7,111.8S128.5,290.8,213.7,314.3z"/>
			<path class="st0" d="M360.8,39.1c-9-7.8-18.7-14.5-29.2-20.1l-15.1,28.2c8.4,4.5,16.2,9.9,23.4,16.1L360.8,39.1z"/>
			<path class="st0" d="M373.3,108.7l29.3-12.8c-4.8-10.9-10.7-21.2-17.8-30.7l-25.8,19C364.7,91.8,369.5,100,373.3,108.7z"/>
			<path class="st0" d="M256,112h48V80h-32V48h-32V83c-24.9,8.8-38,36.1-29.3,61.1c6.8,19.2,24.9,32,45.3,32c8.8,0,16,7.2,16,16
				s-7.2,16-16,16h-48v32h32v32h32v-34.9c24.9-8.8,38-36.1,29.3-61.1c-6.8-19.2-24.9-32-45.3-32c-8.8,0-16-7.2-16-16
				S247.2,112,256,112z"/>
			<polygon class="st0" points="160,416 128,416 128,384 96,384 96,448 160,448 			"/>
			<polygon class="st0" points="352,416 352,448 416,448 416,384 384,384 384,416 			"/>
		</g>
	</g>
</g>
</svg>
