<?xml version="1.0" encoding="utf-8"?>
<!-- Generator: Adobe Illustrator 22.1.0, SVG Export Plug-In . SVG Version: 6.00 Build 0)  -->
<svg version="1.1"
	 id="Layer_1" xmlns:cc="http://creativecommons.org/ns#" xmlns:dc="http://purl.org/dc/elements/1.1/" xmlns:inkscape="http://www.inkscape.org/namespaces/inkscape" xmlns:rdf="http://www.w3.org/1999/02/22-rdf-syntax-ns#" xmlns:sodipodi="http://sodipodi.sourceforge.net/DTD/sodipodi-0.dtd" xmlns:svg="http://www.w3.org/2000/svg"
	 xmlns="http://www.w3.org/2000/svg" xmlns:xlink="http://www.w3.org/1999/xlink" x="0px" y="0px" viewBox="0 0 84 59.3"
	 style="enable-background:new 0 0 84 59.3;" xml:space="preserve">
<g transform="translate(0,-952.36218)">
	<path d="M5.7,956c-0.3,0-0.7,0.1-1,0.2L40,989.4c0.8,0.7,2.5,0.7,3.2,0l35.3-33.2c-0.3-0.1-0.6-0.2-1-0.2C77.7,956,5.7,956,5.7,956
		z M1.8,959c-0.1,0.3-0.2,0.7-0.2,1.1v46c0,0.4,0.1,0.7,0.2,1l25.4-24.2L1.8,959L1.8,959z M81.5,959l-25.4,23.9l25.4,24.2
		c0.1-0.3,0.2-0.7,0.2-1v-46C81.7,959.7,81.6,959.3,81.5,959z M30.1,985.6l-25.5,24.3c0.3,0.1,0.7,0.2,1,0.2h72c0.3,0,0.7-0.1,1-0.2
		l-25.5-24.2l-7.2,6.7c-2.4,2.3-6.3,2.3-8.8,0L30.1,985.6L30.1,985.6z"/>
</g>
</svg>
