<?xml version="1.0" encoding="utf-8"?>
<!-- Generator: Adobe Illustrator 22.1.0, SVG Export Plug-In . SVG Version: 6.00 Build 0)  -->
<svg version="1.1" id="Layer_1" xmlns="http://www.w3.org/2000/svg" xmlns:xlink="http://www.w3.org/1999/xlink" x="0px" y="0px"
	 viewBox="0 0 100 95.3" style="enable-background:new 0 0 100 95.3;" xml:space="preserve">
<title>EXPORT - UP</title>
<path d="M89.4,65l-10.6-5.1c-4.5-2.2-8.1-0.9-10.8,2.1l-6.7,7.5c-1.3,1.5-3.5,1.8-5.2,0.7c-5.7-3.6-11-7.8-15.8-12.7
	c-4.8-4.8-9-10.1-12.7-15.8c-1-1.7-0.7-3.9,0.7-5.2l7.5-6.7c3-2.7,4.3-6.3,2.1-10.8L33,8.6c-2.8-5.8-6.7-7.1-12.5-3.7
	c-3.7,2.3-7.1,5.1-10.2,8.3C-1,24.8,6.2,50.6,26.8,71.2c20.6,20.6,46.4,27.8,58,16.5c3.2-3,6-6.4,8.3-10.2
	C96.5,71.7,95.2,67.8,89.4,65z"/>
</svg>
