<!-- Generated by IcoMoon.io -->
<svg version="1.1" xmlns="http://www.w3.org/2000/svg" width="26" height="32" viewBox="0 0 26 32">
<path fill="#fff" stroke="#fff" d="M24.747 15.786l-1.64-1.819-1.819 1.64c-0.205 0.185-0.221 0.501-0.037 0.706s0.501 0.221 0.706 0.037l0.586-0.528c-0.669 4.635-4.905 7.958-9.6 7.46-0.274-0.030-0.521 0.169-0.55 0.444s0.17 0.521 0.444 0.55c0.349 0.038 0.696 0.055 1.040 0.055 4.812 0 8.976-3.559 9.659-8.393l0.467 0.518c0.099 0.11 0.235 0.166 0.372 0.166 0.119 0 0.239-0.043 0.334-0.129 0.205-0.185 0.221-0.501 0.037-0.706z"></path>
<path fill="#fff" stroke="#fff" d="M13.424 12.825v0.5h10.5v-0.5c0-2.425-1.652-4.471-3.89-5.071 1-0.5 1.689-1.536 1.689-2.729 0-1.682-1.369-3.050-3.050-3.050s-3.050 1.368-3.050 3.050c0 1.193 0.689 2.228 1.689 2.729-2.238 0.601-3.889 2.646-3.889 5.071z"></path>
<path fill="#fff" stroke="#fff" d="M14.479 3.152l-1.601-1.854c-0.181-0.209-0.496-0.232-0.705-0.052s-0.232 0.496-0.052 0.706l0.43 0.498c-5.275-0.39-9.934 3.522-10.437 8.812-0.026 0.275 0.175 0.519 0.45 0.546 0.016 0.002 0.032 0.002 0.048 0.002 0.255 0 0.473-0.194 0.498-0.453 0.455-4.788 4.702-8.319 9.486-7.9l-0.624 0.539c-0.209 0.18-0.232 0.496-0.052 0.705 0.099 0.114 0.239 0.173 0.379 0.173 0.116 0 0.232-0.040 0.326-0.122l1.854-1.601z"></path>
<path fill="#fff" stroke="#fff" d="M7.335 18.904c1-0.5 1.689-1.536 1.689-2.729 0-1.682-1.369-3.050-3.050-3.050s-3.050 1.368-3.050 3.050c0 1.193 0.688 2.228 1.689 2.729-2.237 0.601-3.889 2.646-3.889 5.071v0.5h10.5v-0.5c0-2.425-1.652-4.471-3.889-5.071z"></path>
</svg>
