<?xml version="1.0" encoding="utf-8"?>
<!-- Generator: Adobe Illustrator 22.1.0, SVG Export Plug-In . SVG Version: 6.00 Build 0)  -->
<svg version="1.1" id="Layer_1" focusable="false" xmlns="http://www.w3.org/2000/svg" xmlns:xlink="http://www.w3.org/1999/xlink"
	 x="0px" y="0px" viewBox="0 0 512 512" style="enable-background:new 0 0 512 512;" xml:space="preserve">
<style type="text/css">
	.st0{fill:#3285CF;}
</style>
<path class="st0" d="M345.5,313.6L275,262.3V116c0-6.6-5.4-12-12-12h-14c-6.6,0-12,5.4-12,12v159.6c0,3.8,1.8,7.4,4.9,9.7l81.2,59v0
	c5.4,3.9,12.9,2.7,16.8-2.6l8.2-11.3C352,325,350.9,317.5,345.5,313.6z"/>
<path class="st0" d="M256,8C119,8,8,119,8,256s111,248,248,248s248-111,248-248S393,8,256,8z M68,98h-1H68z M256,472
	c-118.7,0-216-96.1-216-216c0-118.7,96.1-216,216-216c118.7,0,216,96.1,216,216C472,374.7,375.9,472,256,472z"/>
</svg>
