<?xml version="1.0"?>
<svg xmlns="http://www.w3.org/2000/svg" id="Layer_1" data-name="Layer 1" viewBox="0 0 512 512" width="512px" height="512px" class=""><g><title class="active-path" style="fill:#FFFFFF" data-old_color="#F6F2F2">Atm</title><path d="M488.925,48H23.075C18.657,48,15,52.014,15,56.432V284.181A7.912,7.912,0,0,0,23.075,292H127V455.568c0,4.418,3.58,8.432,8,8.432H377c4.419,0,8-4.014,8-8.432V292H488.925A7.912,7.912,0,0,0,497,284.181V56.432C497,52.014,493.343,48,488.925,48ZM127,201H83V139h44ZM369,448H143V139h7V435.174a7.585,7.585,0,0,0,.684,3.027,8,8,0,0,0,7.427,4.8h198.5c4.418,0,8.392-3.407,8.392-7.826V139h4Zm-27.8-74c-26.4,0-48.2,21.177-48.2,47.579V427H219v-4.968A47.95,47.95,0,0,0,171.254,374H166V139H349V374Zm7.8,16v37H309v-5.421C309,404,323.62,390,341.2,390Zm-177.746,0A31.932,31.932,0,0,1,203,422.032V427H166V390ZM481,276H385V217h52.164A7.517,7.517,0,0,0,445,209.415V131.2a8.034,8.034,0,0,0-7.836-8.2H74.836A8.034,8.034,0,0,0,67,131.2v78.217A7.517,7.517,0,0,0,74.836,217H127v59H31V64H481Zm-96-75V139h44v62Z" data-original="#000000" class="active-path" data-old_color="#F6F2F2" fill="#FFFFFF"/><path d="M256,154.185a84.305,84.305,0,1,0,84.305,84.305A84.4,84.4,0,0,0,256,154.185Zm0,152.61a68.305,68.305,0,1,1,68.305-68.305A68.382,68.382,0,0,1,256,306.8Z" data-original="#000000" class="active-path" data-old_color="#F6F2F2" fill="#FFFFFF"/></g> </svg>
